<?xml version="1.0" encoding="UTF-8" standalone="no"?>
<!DOCTYPE svg PUBLIC "-//W3C//DTD SVG 1.1//EN"
 "http://www.w3.org/Graphics/SVG/1.1/DTD/svg11.dtd">
<!-- Generated by graphviz version 2.40.1 (20161225.0304)
 -->
<!-- Title: G Pages: 1 -->
<svg width="206pt" height="302pt"
 viewBox="0.00 0.00 206.00 302.00" xmlns="http://www.w3.org/2000/svg" xmlns:xlink="http://www.w3.org/1999/xlink">
<g id="graph0" class="graph" transform="scale(1 1) rotate(0) translate(4 298)">
<title>G</title>
<polygon fill="#ffffff" stroke="transparent" points="-4,4 -4,-298 202,-298 202,4 -4,4"/>
<!-- 1 -->
<g id="node1" class="node">
<title>1</title>
<ellipse fill="none" stroke="#000000" cx="63" cy="-276" rx="27" ry="18"/>
<text text-anchor="middle" x="63" y="-271.8" font-family="Times,serif" font-size="14.00" fill="#000000">1</text>
</g>
<!-- 2 -->
<g id="node2" class="node">
<title>2</title>
<ellipse fill="none" stroke="#000000" cx="27" cy="-190" rx="27" ry="18"/>
<text text-anchor="middle" x="27" y="-185.8" font-family="Times,serif" font-size="14.00" fill="#000000">2</text>
</g>
<!-- 1&#45;&gt;2 -->
<g id="edge1" class="edge">
<title>1&#45;&gt;2</title>
<path fill="none" stroke="#000000" d="M55.7149,-258.5966C50.6889,-246.5902 43.9107,-230.3977 38.2018,-216.76"/>
<polygon fill="#000000" stroke="#000000" points="41.3643,-215.2504 34.2743,-207.3775 34.9072,-217.9534 41.3643,-215.2504"/>
<text text-anchor="middle" x="51.5" y="-228.8" font-family="Times,serif" font-size="14.00" fill="#000000">b</text>
</g>
<!-- 5 -->
<g id="node3" class="node">
<title>5</title>
<ellipse fill="none" stroke="#000000" cx="99" cy="-190" rx="27" ry="18"/>
<text text-anchor="middle" x="99" y="-185.8" font-family="Times,serif" font-size="14.00" fill="#000000">5</text>
</g>
<!-- 1&#45;&gt;5 -->
<g id="edge4" class="edge">
<title>1&#45;&gt;5</title>
<path fill="none" stroke="#000000" d="M70.2851,-258.5966C75.3111,-246.5902 82.0893,-230.3977 87.7982,-216.76"/>
<polygon fill="#000000" stroke="#000000" points="91.0928,-217.9534 91.7257,-207.3775 84.6357,-215.2504 91.0928,-217.9534"/>
<text text-anchor="middle" x="87.5" y="-228.8" font-family="Times,serif" font-size="14.00" fill="#000000">b</text>
</g>
<!-- 6 -->
<g id="node6" class="node">
<title>6</title>
<ellipse fill="none" stroke="#000000" cx="27" cy="-104" rx="27" ry="18"/>
<text text-anchor="middle" x="27" y="-99.8" font-family="Times,serif" font-size="14.00" fill="#000000">6</text>
</g>
<!-- 2&#45;&gt;6 -->
<g id="edge5" class="edge">
<title>2&#45;&gt;6</title>
<path fill="none" stroke="#000000" d="M27,-171.7616C27,-160.3597 27,-145.4342 27,-132.494"/>
<polygon fill="#000000" stroke="#000000" points="30.5001,-132.2121 27,-122.2121 23.5001,-132.2121 30.5001,-132.2121"/>
<text text-anchor="middle" x="36.7139" y="-142.8" font-family="Times,serif" font-size="14.00" fill="#000000">baa</text>
</g>
<!-- 3 -->
<g id="node4" class="node">
<title>3</title>
<ellipse fill="none" stroke="#000000" cx="99" cy="-104" rx="27" ry="18"/>
<text text-anchor="middle" x="99" y="-99.8" font-family="Times,serif" font-size="14.00" fill="#000000">3</text>
</g>
<!-- 5&#45;&gt;3 -->
<g id="edge2" class="edge">
<title>5&#45;&gt;3</title>
<path fill="none" stroke="#000000" d="M99,-171.7616C99,-160.3597 99,-145.4342 99,-132.494"/>
<polygon fill="#000000" stroke="#000000" points="102.5001,-132.2121 99,-122.2121 95.5001,-132.2121 102.5001,-132.2121"/>
<text text-anchor="middle" x="102.1069" y="-142.8" font-family="Times,serif" font-size="14.00" fill="#000000">a</text>
</g>
<!-- 4 -->
<g id="node5" class="node">
<title>4</title>
<ellipse fill="none" stroke="#000000" cx="171" cy="-104" rx="27" ry="18"/>
<text text-anchor="middle" x="171" y="-99.8" font-family="Times,serif" font-size="14.00" fill="#000000">4</text>
</g>
<!-- 5&#45;&gt;4 -->
<g id="edge3" class="edge">
<title>5&#45;&gt;4</title>
<path fill="none" stroke="#000000" d="M112.2059,-174.2263C123.0987,-161.2155 138.7212,-142.5553 151.1247,-127.7399"/>
<polygon fill="#000000" stroke="#000000" points="153.8982,-129.8794 157.634,-119.965 148.5309,-125.3858 153.8982,-129.8794"/>
<text text-anchor="middle" x="146.2139" y="-142.8" font-family="Times,serif" font-size="14.00" fill="#000000">aa</text>
</g>
<!-- 7 -->
<g id="node7" class="node">
<title>7</title>
<ellipse fill="none" stroke="#000000" cx="99" cy="-18" rx="27" ry="18"/>
<text text-anchor="middle" x="99" y="-13.8" font-family="Times,serif" font-size="14.00" fill="#000000">7</text>
</g>
<!-- 3&#45;&gt;7 -->
<g id="edge6" class="edge">
<title>3&#45;&gt;7</title>
<path fill="none" stroke="#000000" d="M99,-85.7616C99,-74.3597 99,-59.4342 99,-46.494"/>
<polygon fill="#000000" stroke="#000000" points="102.5001,-46.2121 99,-36.2121 95.5001,-46.2121 102.5001,-46.2121"/>
<text text-anchor="middle" x="108.7139" y="-56.8" font-family="Times,serif" font-size="14.00" fill="#000000">aba</text>
</g>
</g>
</svg>
